<svg width="20" height="20" viewBox="0 0 20 20" fill="none" xmlns="http://www.w3.org/2000/svg">
<g id="shopping-cart 1" clip-path="url(#clip0_1_133)">
<g id="Group">
<g id="Group_2">
<path id="Vector" d="M14.778 14.9937C13.5301 14.9937 12.5011 15.9999 12.5011 17.2687C12.5011 18.5156 13.5082 19.5438 14.778 19.5438C16.0259 19.5438 17.0549 18.5375 17.0549 17.2687C17.033 16.0218 16.0259 14.9937 14.778 14.9937Z" fill="#FFAD4C"/>
</g>
</g>
<g id="Group_3">
<g id="Group_4">
<path id="Vector_2" d="M18.7845 4.14395C18.7407 4.14395 18.675 4.12207 18.6093 4.12207H4.81654L4.5976 2.65641C4.46624 1.69388 3.6343 0.971985 2.64909 0.971985H0.875734C0.39408 0.971985 0 1.36575 0 1.84701C0 2.32827 0.39408 2.72203 0.875734 2.72203H2.64909C2.75856 2.72203 2.84614 2.80953 2.86803 2.91891L4.22542 12.1504C4.40056 13.3098 5.40766 14.1848 6.5899 14.1848H15.6975C16.836 14.1848 17.8212 13.3754 18.062 12.2598L19.4851 5.15022C19.5727 4.69084 19.2661 4.23145 18.7845 4.14395Z" fill="#FFAD4C"/>
</g>
</g>
<g id="Group_5">
<g id="Group_6">
<path id="Vector_3" d="M9.19517 17.1593C9.15139 15.9562 8.14429 14.9937 6.94016 14.9937C5.67035 15.0593 4.70704 16.1093 4.75082 17.3562C4.79461 18.5594 5.77981 19.5219 6.98395 19.5219H7.02773C8.27565 19.4563 9.26085 18.4062 9.19517 17.1593Z" fill="#FFAD4C"/>
</g>
</g>
</g>
<defs>
<clipPath id="clip0_1_133">
<rect width="19.5" height="19.4842" fill="white" transform="translate(0 0.515778)"/>
</clipPath>
</defs>
</svg>
